<svg xmlns="http://www.w3.org/2000/svg" width="172" height="55" viewBox="0 0 172 55" fill="none"><path fill-rule="evenodd" clip-rule="evenodd" d="M50.418 13H49.0435V42.5901H50.418V13ZM74.0772 13H72.7027V42.5901H74.0772V13ZM97.7994 13H96.4546V42.5901H97.7994V13ZM168.931 13H167.556V42.5901H168.931V13ZM145.297 13H143.923V42.5901H145.297V13ZM121.504 13H120.129V42.5901H121.504V13ZM2.87585 13H26.4419V42.5901H2.87585V13Z" fill="#FACA29"></path><path fill-rule="evenodd" clip-rule="evenodd" d="M16.3694 33.891C15.9599 34.3292 15.3461 34.5632 14.527 34.5632H11.8083V28.9496H14.7907C15.5503 28.9496 16.1057 29.1835 16.4569 29.7098C16.7789 30.2074 16.9545 30.9378 16.9545 31.8736C16.9545 32.7797 16.7492 33.4231 16.3694 33.891ZM11.8083 20.9972H13.7669C14.6443 20.9972 15.2877 21.2014 15.7259 21.6396C16.1646 22.0788 16.3694 22.7509 16.3694 23.6575C16.3694 24.5052 16.1646 25.1195 15.7556 25.5582C15.3461 25.9964 14.7318 26.2304 13.9424 26.2601H11.8083V20.9972ZM20.3167 29.0377C19.8196 28.2191 19.0594 27.6929 18.0065 27.4589C18.8547 27.0781 19.469 26.5524 19.9072 25.8208C20.3167 25.0904 20.5214 24.2421 20.5214 23.3069C20.5214 21.5234 19.9368 20.1781 18.7958 19.2715C17.6558 18.3655 16.0771 17.9268 14.0305 17.9268H8.24084V37.6627H14.8198C16.8373 37.6627 18.3576 37.1657 19.4393 36.2012C20.5214 35.2066 21.0769 33.7738 21.0769 31.9028C21.0769 30.7914 20.8137 29.8562 20.3167 29.0377Z" fill="#0C0A09"></path><path fill-rule="evenodd" clip-rule="evenodd" d="M162.791 34.8566V27.6638H156.651V29.6812H160.043V34.1548C159.779 34.6518 159.399 35.0608 158.873 35.3828C158.346 35.7043 157.616 35.8502 156.68 35.8502C155.394 35.8502 154.399 35.412 153.639 34.5346C152.908 33.6577 152.528 32.3713 152.528 30.6753V24.7987C152.528 23.1606 152.879 21.9033 153.581 21.0264C154.282 20.1787 155.218 19.74 156.417 19.74C157.616 19.74 158.493 20.062 159.107 20.7045C159.692 21.3479 160.042 22.2837 160.072 23.5414H162.674L162.703 23.4534C162.616 21.6116 162.06 20.2079 161.008 19.1846C159.925 18.1613 158.376 17.6637 156.388 17.6637C154.399 17.6637 152.791 18.278 151.592 19.5353C150.393 20.792 149.78 22.576 149.78 24.8565V30.7045C149.78 33.0142 150.423 34.7982 151.68 36.0555C152.938 37.3127 154.633 37.9265 156.68 37.9265C158.259 37.9265 159.575 37.6342 160.569 36.9907C161.592 36.3478 162.323 35.6459 162.791 34.8566ZM139.201 17.9417H136.481V32.532L136.394 32.5612L128.909 17.9417H126.16V37.6485H128.909V22.9998H128.996L136.481 37.6485H139.201V17.9417ZM113.523 20.6609V17.9417H104.26V20.6609H107.532V34.9298H104.26V37.6485H107.532H110.251H113.523V34.9298H110.251V20.6609H113.523ZM77.0984 17.9417V37.6485H79.8171V30.0759L79.5832 22.5028H79.6415L84.3787 37.6485H86.1913L90.928 22.4736L91.0155 22.5028L90.7821 30.0759V37.6485H93.5014V17.9417H89.9631L85.3431 34.0232H85.2556L80.6362 17.9417H77.0984ZM59.0732 30.5146L61.558 21.889H61.646L64.1021 30.5146H59.0732ZM62.9324 17.9417H60.3007L54.2193 37.6485H57.0261L58.4589 32.6779H64.7451L66.1779 37.6485H68.9555L62.9324 17.9417ZM44.0887 34.8417C43.65 35.6316 42.919 36.3621 41.8957 36.9764C40.8724 37.6193 39.5855 37.9408 38.0068 37.9408C35.931 37.9408 34.2642 37.2979 33.007 36.0406C31.7498 34.8126 31.1068 32.9999 31.1068 30.6897V24.8422C31.1068 22.5611 31.7206 20.7777 32.9195 19.5501C34.1183 18.2929 35.6971 17.6494 37.6853 17.6494C39.7027 17.6494 41.2523 18.1757 42.3052 19.1698C43.3869 20.1931 43.9423 21.6259 44.0304 23.4385L44.0007 23.5261H41.3987C41.3403 22.2985 41.0183 21.3628 40.4045 20.7193C39.8194 20.0467 38.9134 19.7252 37.7145 19.7252C36.5156 19.7252 35.5798 20.1639 34.8785 21.0413C34.1767 21.889 33.8552 23.1462 33.8552 24.813V30.6897C33.8552 32.3564 34.2064 33.6429 34.9661 34.5203C35.6971 35.4263 36.7209 35.865 38.0068 35.865C38.9425 35.865 39.6735 35.6894 40.2003 35.368C40.6968 35.0465 41.1064 34.637 41.3403 34.1404V29.6664H37.9781V27.6781H44.0887V34.8417Z" fill="white"></path></svg>