<!-- Generated by IcoMoon.io -->
<svg version="1.1" xmlns="http://www.w3.org/2000/svg" width="1024" height="1024" viewBox="0 0 1024 1024">
<title></title>
<g id="icomoon-ignore">
</g>
<path fill="#f4aa0b" opacity="0.8" d="M512 64c-124.278 0-235.522 50.11-316.707 131.293s-131.293 192.43-131.293 316.707c0 124.278 50.11 235.522 131.293 316.707s192.43 131.293 316.707 131.293c124.278 0 235.522-50.11 316.707-131.293s131.293-192.43 131.293-316.707c0-124.278-50.11-235.522-131.293-316.707s-192.43-131.293-316.707-131.293zM682.38 485.945c29.065 21.045 49.109 57.13 48.109 98.218 0 65.142-49.109 118.262-110.25 118.262-5.011 0-11.023 0-18.042 0s-16.034 0-25.054 0v93.206c0 4.011-4.011 9.022-9.022 9.022h-32.074c-5.011 0-10.022-5.011-10.022-9.022v-93.206h-51.114v93.206c0 4.011-5.011 9.022-10.022 9.022h-32.074c-4.011 0-9.022-5.011-9.022-9.022v-93.206h-100.226c-7.014 0-11.023-6.011-10.022-11.023l6.011-33.076c1-4.011 5.011-7.014 9.022-8.021 31.066-3.010 44.098-23.054 44.098-50.11v-198.445c0-31.066-19.043-54.119-55.121-57.13-5.011-1-9.022-5.011-9.022-10.022v-32.074c0-5.011 5.011-10.022 10.022-10.022h105.238v-93.206c0-4.011 5.011-9.022 10.022-9.022h31.066c5.011 0 10.022 4.011 10.022 9.022v93.206h51.114v-93.206c0-4.011 5.011-9.022 10.022-9.022h32.074c5.011 0 9.022 4.011 9.022 9.022v93.206c3.010 0 7.014 0 10.022 0s5.011 0 8.021 0c60.131 0 110.25 53.119 110.25 120.271 0 27.062-8.021 53.119-23.054 73.163zM474.914 369.684v105.238c0 0 9.022 0 28.065 0s35.076 0 50.11 0c29.065 0 53.119-24.054 53.119-53.119 0-28.065-24.054-52.119-53.119-52.119-15.033 0-31.066 0-50.11 0s-28.065 0-28.065 0zM579.152 628.261c29.065 0 53.119-23.054 53.119-52.119s-24.054-53.119-53.119-53.119c-15.033 0-36.078 0-63.141 0s-41.090 0-41.090 0v105.238c0 0 14.033 0 41.090 0s48.109 0 63.141 0z"></path>
</svg>
