<!-- Generated by IcoMoon.io -->
<svg version="1.1" xmlns="http://www.w3.org/2000/svg" width="1024" height="1024" viewBox="0 0 1024 1024">
<title></title>
<g id="icomoon-ignore">
</g>
<path fill="#7086d7" d="M643.62 594.229c-45.413 0-82.215-36.803-82.215-82.215s36.803-82.245 82.215-82.245c45.413 0 82.245 36.833 82.245 82.245s-36.833 82.215-82.245 82.215zM380.483 594.229c-45.413 0-82.215-36.803-82.215-82.215s36.803-82.245 82.215-82.245c45.413 0 82.245 36.833 82.245 82.245s-36.833 82.215-82.245 82.215zM954.236 670.702c-0.139-2.227 0-4.453 0.47-6.652-8.961-47.506-57.501-270.902-80.237-323.794-14.77-34.888-29.012-67.658-67.18-87.587-15.875-9.045-32.195-17.265-48.927-24.633-35.291-14.846-72.684-24.275-110.824-27.904-7.356-0.603-17.867-2.803-19.001 7.836-0.941 8.495 9.154 7.506 15.047 9.758 15.434 5.855 114.974 33.21 134.5 65.706-9.763 2.556-20.135 0.963-28.68-4.37-65.576-29.113-136.298-45.113-208.097-47.12-46.189-1.843-92.404 0.659-138.123 7.451-40.241 6.46-79.876 16.385-118.402 29.692 0 0-69.034 28.975-69.587 29.525 2.075-5.224 5.033-10.063 8.767-14.241 0 0 0-6.652 39.245-22.653 1.882-1.401 85.711-36.097 117.713-48.908 4.424-1.731 11.645-1.182 10.040-8.165s-7.965-4.783-12.834-4.646c-3.348 0-6.692 0.522-9.957 0.851-63.169 7.807-123.519 30.597-175.959 66.448-8.877 5.692-16.014 13.691-20.576 23.12-29.953 61.938-94.949 219.876-103.496 404.73-0.83 11.601 3.097 23.066 10.897 31.698 48.595 56.632 111.71 85.745 184.642 96.687 25.197 3.794 40.436-3.711 58.968-24.384 14.686-16.385 12.032-15.946 18.836-23.203 6.831-7.231 4.869-11.877-4.066-15.477-15.379-6.103-75.864-39.863-86.9-50.831-7.301-3.904-20.051-14.598-22.735-24.909 9.071 2.392 42.925 21.801 53.96 27.299 8.877 4.287 175.987 70.735 334.769 39.863 58.8-11.435 115.444-31.89 167.938-60.673 3.596-1.98 7.275-5.772 14.3-0.908-13.913 18.612-93.206 66.448-108.64 70.957s-11.893 9.98-4.536 18.887c7.356 8.908 26.193 35.822 31.003 39.313 0.941 1.018 1.963 2.035 2.959 2.941 15.156 3.382 112.899 0 179.277-53.169 31.696-25.705 65.715-49.539 55.426-98.53z"></path>
</svg>
