<!-- Generated by IcoMoon.io -->
<svg version="1.1" xmlns="http://www.w3.org/2000/svg" width="1024" height="1024" viewBox="0 0 1024 1024">
<title></title>
<g id="icomoon-ignore">
</g>
<path fill="#1973eb" d="M512 64c247.408 0 448 201.070 448 449.067 0 219.452-157.052 402.168-364.672 441.322v-321.364h100.8l7.56-98.543h-108.36v-76.958c0-26.468 23.66-35.954 50.092-35.954 26.404 0 54.74 8.194 54.74 8.194l16.968-100.87c0 0-36.064-12.293-121.8-12.293-52.612 0-83.216 20.095-105.504 49.595-21.14 27.9-21.868 72.89-21.868 102.077v66.208h-67.956v98.543h67.956v326.976c-226.744-22.172-403.956-213.812-403.956-446.933 0-247.997 200.592-449.067 448-449.067z"></path>
</svg>
