<!-- Generated by IcoMoon.io -->
<svg version="1.1" xmlns="http://www.w3.org/2000/svg" width="1024" height="1024" viewBox="0 0 1024 1024">
<title></title>
<g id="icomoon-ignore">
</g>
<path fill="#f73b11" opacity="0.8" d="M899.903 292.719c-40.060-70.361-94.402-126.068-163.035-167.128-68.643-41.062-143.584-61.589-224.872-61.589-81.276 0-156.241 20.534-224.872 61.589-68.642 41.061-122.98 96.767-163.040 167.128-40.054 70.359-60.083 147.192-60.083 230.498 0 100.067 28.482 190.050 85.458 269.973 56.969 79.927 130.568 135.236 220.786 165.929 10.502 1.999 18.274 0.593 23.331-4.182 5.055-4.778 7.581-10.766 7.581-17.933 0-1.195-0.098-11.954-0.294-32.289-0.201-20.335-0.294-38.072-0.294-53.21l-13.418 2.379c-8.554 1.608-19.346 2.286-32.376 2.094-13.023-0.185-26.542-1.584-40.539-4.186-14.004-2.578-27.030-8.556-39.084-17.926-12.052-9.366-20.604-21.63-25.662-36.769l-5.834-13.762c-3.887-9.161-10.010-19.336-18.372-30.492-8.361-11.164-16.818-18.734-25.374-22.721l-4.084-2.997c-2.722-1.992-5.248-4.394-7.581-7.182s-4.079-5.578-5.248-8.371c-1.168-2.795-0.201-5.088 2.916-6.888s8.748-2.674 16.918-2.674l11.662 1.786c7.777 1.598 17.401 6.37 28.876 14.35 11.469 7.97 20.901 18.333 28.29 31.085 8.947 16.348 19.729 28.805 32.376 37.377 12.636 8.573 25.374 12.851 38.206 12.851s23.913-0.995 33.25-2.982c9.327-1.995 18.076-4.992 26.25-8.974 3.5-26.721 13.030-47.248 28.578-61.594-22.162-2.389-42.091-5.982-59.791-10.766-17.688-4.788-35.967-12.558-54.827-23.332-18.868-10.76-34.52-24.12-46.962-40.055-12.444-15.946-22.654-36.882-30.618-62.788-7.969-25.914-11.956-55.811-11.956-89.694 0-48.243 15.363-89.297 46.086-123.184-14.392-36.271-13.034-76.93 4.079-121.976 11.277-3.593 28.003-0.896 50.165 8.070 22.167 8.972 38.4 16.653 48.706 23.027 10.31 6.37 18.571 11.767 24.794 16.142 36.173-10.361 73.504-15.542 111.999-15.542s75.836 5.182 112.011 15.542l22.164-14.345c15.159-9.57 33.056-18.343 53.657-26.315 20.611-7.967 36.371-10.164 47.266-6.571 17.492 45.047 19.054 85.704 4.657 121.976 30.721 33.887 46.091 74.95 46.091 123.184 0 33.883-4 63.872-11.959 89.985-7.966 26.118-18.269 47.032-30.901 62.788-12.648 15.75-28.403 29.007-47.259 39.764-18.861 10.766-37.147 18.535-54.838 23.322-17.698 4.788-37.623 8.386-59.789 10.777 20.214 17.933 30.324 46.238 30.324 84.904v126.156c0 7.167 2.431 13.149 7.297 17.933 4.859 4.774 12.535 6.177 23.037 4.179 90.23-30.689 163.827-85.999 220.794-165.926 56.963-79.924 85.453-169.906 85.453-269.973-0.019-83.293-20.061-160.12-60.097-230.482z"></path>
</svg>
