<svg xmlns="http://www.w3.org/2000/svg" viewBox="0 0 16 16"><g fill="#FE4070" fill-rule="nonzero"><path d="M11.584 0H4.415A4.42 4.42 0 0 0 0 4.415v7.17A4.42 4.42 0 0 0 4.415 16h7.17A4.42 4.42 0 0 0 16 11.585v-7.17A4.42 4.42 0 0 0 11.584 0Zm2.996 11.585a3 3 0 0 1-2.995 2.995h-7.17a3 3 0 0 1-2.995-2.995v-7.17A3 3 0 0 1 4.415 1.42h7.17a3 3 0 0 1 2.995 2.995v7.17Z"/><path d="M8 3.877A4.127 4.127 0 0 0 3.877 8 4.127 4.127 0 0 0 8 12.123 4.127 4.127 0 0 0 12.123 8 4.127 4.127 0 0 0 8 3.877Zm0 6.826A2.706 2.706 0 0 1 5.297 8 2.706 2.706 0 0 1 8 5.297 2.706 2.706 0 0 1 10.703 8 2.706 2.706 0 0 1 8 10.703ZM12.296 2.674a1.045 1.045 0 0 0-1.041 1.04c0 .274.111.543.305.737.193.193.462.305.736.305.274 0 .542-.112.736-.305.194-.194.305-.463.305-.736 0-.275-.111-.544-.305-.737a1.046 1.046 0 0 0-.736-.304Z"/></g></svg>