<!-- Generated by IcoMoon.io -->
<svg version="1.1" xmlns="http://www.w3.org/2000/svg" width="1094" height="768" viewBox="0 0 1094 768">
<title>medium-3</title>
<g id="icomoon-ignore">
</g>
<path fill="#555b65" d="M611.386 384.005c0 158.236-127.405 286.512-284.558 286.512s-284.57-128.275-284.57-286.512c0-158.236 127.405-286.522 284.57-286.522s284.558 128.285 284.558 286.522z"></path>
<path fill="#555b65" d="M923.556 384.005c0 148.945-63.703 269.738-142.284 269.738s-142.284-120.793-142.284-269.738c0-148.945 63.693-269.738 142.274-269.738s142.284 120.754 142.284 269.738z"></path>
<path fill="#555b65" d="M1051.242 384.005c0 133.419-22.401 241.643-50.042 241.643s-50.033-108.195-50.033-241.643c0-133.448 22.401-241.643 50.033-241.643s50.042 108.185 50.042 241.643z"></path>
</svg>
