<!-- Generated by IcoMoon.io -->
<svg version="1.1" xmlns="http://www.w3.org/2000/svg" width="1024" height="1024" viewBox="0 0 1024 1024">
<title></title>
<g id="icomoon-ignore">
</g>
<path fill="#26a7e8" d="M33.891 483.585l879.437-395.29c33.288-14.956 72.212 0.369 86.913 34.237 5.24 12.005 6.856 25.284 4.713 38.261l-118.026 713.487c-7.251 43.828-48.054 73.405-91.131 66.027-12.293-2.112-23.928-7.142-33.947-14.688l-297.42-224.17c-29.268-22.031-35.431-64.015-13.744-93.792 2.472-3.421 5.306-6.606 8.404-9.49l298.21-278.394c2.703-2.515 2.867-6.74 0.395-9.49-2.143-2.347-5.603-2.851-8.338-1.141l-452.523 285.133c-16.446 10.328-36.518 12.843-54.942 6.807l-205.432-67.435c-13.876-4.56-21.489-19.684-17.006-33.768 2.307-7.243 7.581-13.212 14.436-16.297z"></path>
</svg>
