<!-- Generated by IcoMoon.io -->
<svg version="1.1" xmlns="http://www.w3.org/2000/svg" width="1024" height="1024" viewBox="0 0 1024 1024">
<title></title>
<g id="icomoon-ignore">
</g>
<path fill="#1ca1f3" d="M1004.3 211.427c-36.259 15.795-75.181 26.5-116.015 31.313 41.743-24.619 73.802-63.551 88.814-109.95-39.048 22.736-82.201 39.303-128.332 48.156-36.729-38.624-89.283-62.749-147.417-62.749-111.471 0-201.884 89.034-201.884 198.829 0 15.579 1.692 30.727 5.203 45.257-167.85-8.33-316.646-87.367-416.364-207.775-17.362 29.462-27.328 63.612-27.328 100.047 0 68.919 35.695 129.786 89.879 165.51-33.094-1.019-64.244-10.057-91.541-24.834v2.437c0 96.376 69.603 176.74 162.083 194.942-16.954 4.689-34.786 7.003-53.245 7.003-13.037 0-25.666-1.172-37.983-3.517 25.698 78.945 100.253 136.481 188.659 137.992-69.133 53.371-156.254 85.147-250.835 85.147-16.296 0-32.404-0.895-48.199-2.745 89.378 56.363 195.615 89.311 309.564 89.311 371.614 0 574.718-302.947 574.718-565.697 0-8.638-0.187-17.276-0.564-25.729 39.487-28.043 73.802-63.088 100.784-102.946z"></path>
</svg>
