<svg xmlns="http://www.w3.org/2000/svg" viewBox="0 0 26 34"><defs><linearGradient id="a" x1="46.918%" x2="67.308%" y1="-2.474%" y2="94.802%"><stop offset="0%" stop-color="#10D763"/><stop offset="100%" stop-color="#0BC157"/></linearGradient><linearGradient id="b" x1="51.746%" x2="50%" y1="3.082%" y2="100%"><stop offset="0%" stop-color="#15BE5C"/><stop offset="100%" stop-color="#0D9747"/></linearGradient></defs><g fill="none" fill-rule="evenodd"><path fill="#0F9949" d="M.955 11.592l4.3-6.88a1.677 1.677 0 012.438-.445l7.63 5.824a6.706 6.706 0 011.81 2.104l7.315 13.325-.928 2.982a1.677 1.677 0 01-1.247 1.141l-12.1 2.612a1.677 1.677 0 01-1.878-.944L.748 14.76a3.353 3.353 0 01.207-3.168z"/><path fill="#10D763" d="M2.524 9.777l2.84-5.079a1.677 1.677 0 012.363-.596l7.472 4.75a6.706 6.706 0 012.414 2.687l6.592 13.331a1.677 1.677 0 01-1.134 2.379L11.557 29.85a1.677 1.677 0 01-1.898-.947L2.394 12.792a3.353 3.353 0 01.13-3.015z"/><path fill="#0F9949" d="M8.5 7.944c.36-.2.449-.985 0-1.795-.449-.81-1.177-1.465-1.626-1.137-.448.327-.448 1.227 0 2.036.45.81 1.266 1.096 1.626.896z"/><path fill="url(#a)" d="M6.938 6.842c-.04-.144.107-.974-.261-3.3C6.009 1.321 4.61 1.006 4.47 1.006c-.093 0-.864.144-2.314.432C3.002.264 3.948-.187 4.994.084 6.798.475 8.688 2.79 8.02 7.614c-.163.147-.31-.009-.67-.266-.148-.106-.372-.362-.411-.506z"/><path fill="url(#b)" d="M4.327 6.274c-.746-.822-1.172-1.633-1.28-2.433-.143-1.076-.131-2.455 1.563-2.815.022.013-1.484-.711-2.414.36-.444.632-.497 1.764-.211 3.081.28 1.296 1.312 2.617 1.75 2.963-.047.01.15-.375.592-1.156z"/><path fill="#FFF" fill-rule="nonzero" d="M16.28 24.419l-.636-1.654c.783-.423 1.32-.96 1.61-1.612.29-.652.3-1.331.029-2.037-.255-.664-.661-1.137-1.218-1.421-.557-.283-1.268-.4-2.133-.35l-.793.046c-.543.024-.959-.004-1.247-.083-.289-.08-.497-.286-.624-.617-.131-.343-.1-.653.095-.93.194-.277.49-.492.885-.644a4.235 4.235 0 011.1-.256c.39-.04.772-.033 1.148.02l-.023-1.502a4.348 4.348 0 00-1.105-.046 5.976 5.976 0 00-1.018.18l-.616-1.606-1.204.462.616 1.605c-.76.354-1.296.854-1.606 1.501-.31.647-.32 1.35-.028 2.11.131.343.307.626.528.848.22.222.468.397.744.525.277.127.582.212.918.255.336.043.685.057 1.047.04l.815-.036c.575-.037 1.015-.003 1.32.101.303.105.517.317.64.638.131.343.102.667-.087.973-.19.306-.541.558-1.055.755a4.726 4.726 0 01-1.139.272c-.417.05-.86.023-1.329-.08l-.133 1.525c.46.08.901.108 1.32.082.42-.026.869-.106 1.346-.24l.628 1.638 1.204-.462z"/></g></svg>